<svg xmlns="http://www.w3.org/2000/svg" viewBox="0 0 512 512">
  <rect width="512" height="512" fill="#1e3a5f"/>
  <g transform="translate(256, 256)">
    <circle r="170" fill="#d4a843"/>
    <g transform="translate(0, 8)">
      <path d="M -90 -70 Q -90 -85 -75 -85 L -8 -85 Q 0 -85 0 -78 L 0 80 Q 0 85 -5 85 L -75 85 Q -90 85 -90 70 Z"
            fill="#fff" stroke="#1e3a5f" stroke-width="4"/>
      <path d="M 90 -70 Q 90 -85 75 -85 L 8 -85 Q 0 -85 0 -78 L 0 80 Q 0 85 5 85 L 75 85 Q 90 85 90 70 Z"
            fill="#fff" stroke="#1e3a5f" stroke-width="4"/>
      <line x1="-75" y1="-65" x2="-15" y2="-65" stroke="#1e3a5f" stroke-width="3"/>
      <line x1="-75" y1="-45" x2="-15" y2="-45" stroke="#1e3a5f" stroke-width="3"/>
      <line x1="-75" y1="-25" x2="-15" y2="-25" stroke="#1e3a5f" stroke-width="3"/>
      <line x1="-75" y1="-5"  x2="-15" y2="-5"  stroke="#1e3a5f" stroke-width="3"/>
      <line x1="-75" y1="15"  x2="-15" y2="15"  stroke="#1e3a5f" stroke-width="3"/>
      <line x1="-75" y1="35"  x2="-15" y2="35"  stroke="#1e3a5f" stroke-width="3"/>
      <line x1="-75" y1="55"  x2="-15" y2="55"  stroke="#1e3a5f" stroke-width="3"/>
      <line x1="15"  y1="-65" x2="75"  y2="-65" stroke="#1e3a5f" stroke-width="3"/>
      <line x1="15"  y1="-45" x2="75"  y2="-45" stroke="#1e3a5f" stroke-width="3"/>
      <line x1="15"  y1="-25" x2="75"  y2="-25" stroke="#1e3a5f" stroke-width="3"/>
      <line x1="15"  y1="-5"  x2="75"  y2="-5"  stroke="#1e3a5f" stroke-width="3"/>
      <line x1="15"  y1="15"  x2="75"  y2="15"  stroke="#1e3a5f" stroke-width="3"/>
      <line x1="15"  y1="35"  x2="75"  y2="35"  stroke="#1e3a5f" stroke-width="3"/>
      <line x1="15"  y1="55"  x2="75"  y2="55"  stroke="#1e3a5f" stroke-width="3"/>
    </g>
  </g>
</svg>
